<?xml version="1.0" encoding="UTF-8" standalone="no"?>
<!DOCTYPE svg PUBLIC "-//W3C//DTD SVG 1.1//EN" "http://www.w3.org/Graphics/SVG/1.1/DTD/svg11.dtd">
<svg version="1.1" xmlns="http://www.w3.org/2000/svg" xmlns:xlink="http://www.w3.org/1999/xlink" preserveAspectRatio="xMidYMid meet" viewBox="0 0 404 648.39" width="404" height="648.39"><defs><path d="M114.21 241.26C102.65 228.46 95.43 220.46 92.55 217.26C79.18 202.45 72.22 182.95 73.18 163.03C73.57 155 73.33 160 73.74 151.46C74.63 133.2 82.92 116.08 96.7 104.06C99.8 101.36 107.55 94.6 119.95 83.79" id="atN56b9NH"></path><path d="M110.55 221.47L114.15 241.85L94.04 233.73" id="aa52z4wS5"></path><path d="M308.89 407.68L291.13 418.3L291.56 396.61" id="bXA7twQQ5"></path><path d="M291.22 417.13C291.27 417.04 291.3 416.99 291.31 416.97C311.04 384.33 325.42 348.75 333.89 311.57C335.47 304.63 331.33 322.79 333.89 311.57C339.13 288.58 340.87 264.94 339.07 241.44C338 227.62 338.75 237.41 338 227.54C335.19 191.06 325.33 155.47 308.97 122.75C306.6 118.01 300.69 106.18 291.22 87.24" id="dHqei31YZ"></path></defs><g><g><g><g><use xlink:href="#atN56b9NH" opacity="1" fill-opacity="0" stroke="#fffbee" stroke-width="4" stroke-opacity="1"></use></g></g><g><g><use xlink:href="#aa52z4wS5" opacity="1" fill-opacity="0" stroke="#fffbee" stroke-width="4" stroke-opacity="1"></use></g></g><g><g><use xlink:href="#bXA7twQQ5" opacity="1" fill-opacity="0" stroke="#fffbee" stroke-width="4" stroke-opacity="1"></use></g></g><g><g><use xlink:href="#dHqei31YZ" opacity="1" fill-opacity="0" stroke="#fffbee" stroke-width="4" stroke-opacity="1"></use></g></g></g></g></svg>