<?xml version="1.0" encoding="UTF-8" standalone="no"?>
<!DOCTYPE svg PUBLIC "-//W3C//DTD SVG 1.1//EN" "http://www.w3.org/Graphics/SVG/1.1/DTD/svg11.dtd">
<svg version="1.1" xmlns="http://www.w3.org/2000/svg" xmlns:xlink="http://www.w3.org/1999/xlink" preserveAspectRatio="xMidYMid meet" viewBox="0 0 435 660.36" width="435" height="660.36"><defs><path d="M351.63 353.38L332.65 359.7L335.57 339.27" id="a1lyaGZi0k"></path><path d="M113.78 154.1L117.38 174.48L97.27 166.35" id="b2BeFwIUIs"></path><path d="M333.87 358.3L353.89 332.71C355.01 331.27 355.72 330.38 356 330.02C365.38 318.02 372.17 304.21 375.93 289.46C377.42 283.63 375.21 292.28 376.46 287.39C381.04 269.42 383.24 250.92 382.99 232.38C382.87 222.62 382.85 221.66 382.73 211.99C382.48 193.11 379.76 174.35 374.63 156.17C371.73 145.89 376.17 161.65 374.63 156.17C365.09 122.36 347.85 91.22 324.25 65.19C319.87 60.36 308.94 48.3 291.44 29" id="f28Ac80I5S"></path><path d="M114.91 171.13C104.88 159.8 98.61 152.72 96.1 149.89C90.88 143.99 86.91 137.11 84.42 129.64C83.28 126.21 85.17 131.9 84.42 129.64C80.66 118.38 79.64 106.39 81.43 94.66C82.44 88.05 82.12 90.12 82.98 84.53C85.26 69.52 91.31 55.32 100.54 43.27C102 41.37 105.64 36.61 111.47 29" id="c1uWIPT8fG"></path></defs><g><g><g><g><use xlink:href="#a1lyaGZi0k" opacity="1" fill-opacity="0" stroke="#fffbee" stroke-width="3" stroke-opacity="1"></use></g></g><g><g><use xlink:href="#b2BeFwIUIs" opacity="1" fill-opacity="0" stroke="#fffbee" stroke-width="4" stroke-opacity="1"></use></g></g><g><g><use xlink:href="#f28Ac80I5S" opacity="1" fill-opacity="0" stroke="#fffbee" stroke-width="3" stroke-opacity="1"></use></g></g><g><g><use xlink:href="#c1uWIPT8fG" opacity="1" fill-opacity="0" stroke="#fffbee" stroke-width="4" stroke-opacity="1"></use></g></g></g></g></svg>