<?xml version="1.0" encoding="UTF-8" standalone="no"?>
<!DOCTYPE svg PUBLIC "-//W3C//DTD SVG 1.1//EN" "http://www.w3.org/Graphics/SVG/1.1/DTD/svg11.dtd">
<svg version="1.1" xmlns="http://www.w3.org/2000/svg" xmlns:xlink="http://www.w3.org/1999/xlink" preserveAspectRatio="xMidYMid meet" viewBox="0 0 499 690.34" width="499" height="690.34"><defs><path d="M109.39 227.21L99.22 207.9L109.39 227.21Z" id="bnau3Z8oX"></path><path d="M109.39 227.21L87.58 226.36L109.39 227.21Z" id="arYPd3x8I"></path><path d="M388.5 350.62L408.41 341.7L388.5 350.62Z" id="aeHksOSL0"></path><path d="M388.5 350.62L390.73 328.91L388.5 350.62Z" id="a2BfTm81q"></path><path d="M110.41 227.72C107.8 226.57 106.17 225.86 105.51 225.57C89.77 218.69 76.54 207.09 67.65 192.39C65.66 189.09 70.39 196.91 67.65 192.39C61.05 181.47 56.32 169.53 53.66 157.05C52.1 149.73 54.34 160.22 53.5 156.3C48.59 133.26 52.61 109.21 64.75 89.02C67.64 84.21 60.97 95.31 64.75 89.02C74.31 73.11 86.75 59.12 101.43 47.77C103.47 46.18 108.59 42.23 116.77 35.9" id="dIlmhDE"></path><path d="M388.13 351.19C403.83 330.36 413.64 317.34 417.56 312.13C428.75 297.28 437.09 280.48 442.15 262.59C443.99 256.08 442.94 259.77 445.05 252.3C449.21 237.59 450.57 222.23 449.07 207.02C448.03 196.41 447.55 191.58 446.6 181.97C444.76 163.39 440.71 145.09 434.52 127.47C430.77 116.79 427.68 108.02 423.64 96.53C418.4 81.6 411.64 67.25 403.46 53.71C401.47 50.41 396.5 42.16 388.54 28.97" id="c3lneZQnu"></path></defs><g><g><g><g><g><use xlink:href="#bnau3Z8oX" opacity="1" fill-opacity="0" stroke="#fffbee" stroke-width="4" stroke-opacity="1"></use></g></g><g><g><use xlink:href="#arYPd3x8I" opacity="1" fill-opacity="0" stroke="#fffbee" stroke-width="4" stroke-opacity="1"></use></g></g></g><g><g><g><use xlink:href="#aeHksOSL0" opacity="1" fill-opacity="0" stroke="#fffbee" stroke-width="4" stroke-opacity="1"></use></g></g><g><g><use xlink:href="#a2BfTm81q" opacity="1" fill-opacity="0" stroke="#fffbee" stroke-width="4" stroke-opacity="1"></use></g></g></g><g><g><use xlink:href="#dIlmhDE" opacity="1" fill-opacity="0" stroke="#fffbee" stroke-width="4" stroke-opacity="1"></use></g></g><g><g><use xlink:href="#c3lneZQnu" opacity="1" fill-opacity="0" stroke="#fffbee" stroke-width="4" stroke-opacity="1"></use></g></g></g></g></svg>