<?xml version="1.0" encoding="UTF-8" standalone="no"?>
<!DOCTYPE svg PUBLIC "-//W3C//DTD SVG 1.1//EN" "http://www.w3.org/Graphics/SVG/1.1/DTD/svg11.dtd">
<svg version="1.1" xmlns="http://www.w3.org/2000/svg" xmlns:xlink="http://www.w3.org/1999/xlink" preserveAspectRatio="xMidYMid meet" viewBox="0 0 434 610" width="434" height="610"><defs><path d="M100.46 190.69C89.68 188.67 82.94 187.4 80.24 186.9C69.54 184.89 59.88 179.2 52.95 170.8C50.73 168.11 55.09 173.4 52.95 170.8C45.77 162.11 41.84 151.19 41.84 139.92C41.84 133.52 41.84 137.68 41.84 132.76C41.84 116.76 47.68 101.31 58.27 89.31C61.88 85.22 54.98 93.03 58.27 89.31C70.12 75.88 85.1 65.58 101.89 59.32C106.3 57.68 117.31 53.58 134.94 47.01" id="dsS2mfZ"></path><path d="M99.21 190.79L83.75 176.19L99.21 190.79Z" id="c37sHc2Gkb"></path><path d="M78.83 196.87L99.21 190.79L78.83 196.87Z" id="bLZn8jPLA"></path><path d="M339.59 337.59L360.85 337.15L339.59 337.59Z" id="b1ILmP4BQz"></path><path d="M349.85 318.96L339.59 337.59L349.85 318.96Z" id="c1DsgHKSH8"></path><path d="M338.27 338.25C339.15 337.84 339.71 337.58 339.93 337.47C353.74 331.03 365.75 321.28 374.9 309.09C377.56 305.54 372.11 312.8 374.9 309.09C383.69 297.35 390.29 284.12 394.37 270.04C396.47 262.8 394.61 269.2 396.22 263.66C401.93 243.92 404.31 223.36 403.26 202.84C402.97 197.24 403.37 204.99 403 197.78C402.22 182.54 399.51 167.46 394.93 152.9C392.98 146.69 394.66 152.02 392.86 146.32C387.77 130.13 380.06 114.88 370.02 101.19C366.39 96.25 372.34 104.36 369.13 99.98C357.72 84.43 343.68 71 327.63 60.3C325.41 58.82 319.88 55.13 311.03 49.23" id="b1ltZ0fzGO"></path></defs><g><g><g><g><use xlink:href="#dsS2mfZ" opacity="1" fill-opacity="0" stroke="#fffbee" stroke-width="4" stroke-opacity="1"></use></g></g><g><g><g><use xlink:href="#c37sHc2Gkb" opacity="1" fill-opacity="0" stroke="#fffbee" stroke-width="4" stroke-opacity="1"></use></g></g><g><g><use xlink:href="#bLZn8jPLA" opacity="1" fill-opacity="0" stroke="#fffbee" stroke-width="4" stroke-opacity="1"></use></g></g></g><g><g><g><use xlink:href="#b1ILmP4BQz" opacity="1" fill-opacity="0" stroke="#fffbee" stroke-width="4" stroke-opacity="1"></use></g></g><g><g><use xlink:href="#c1DsgHKSH8" opacity="1" fill-opacity="0" stroke="#fffbee" stroke-width="4" stroke-opacity="1"></use></g></g></g><g><g><use xlink:href="#b1ltZ0fzGO" opacity="1" fill-opacity="0" stroke="#fffbee" stroke-width="4" stroke-opacity="1"></use></g></g></g></g></svg>